<mxfile host="app.diagrams.net" agent="Mozilla/5.0 (Windows NT 10.0; Win64; x64; rv:134.0) Gecko/20100101 Firefox/134.0" version="26.0.10">
  <diagram id="C5RBs43oDa-KdzZeNtuy" name="Page-1">
    <mxGraphModel dx="1434" dy="734" grid="1" gridSize="10" guides="1" tooltips="1" connect="1" arrows="1" fold="1" page="1" pageScale="1" pageWidth="827" pageHeight="1169" math="0" shadow="0">
      <root>
        <mxCell id="WIyWlLk6GJQsqaUBKTNV-0" />
        <mxCell id="WIyWlLk6GJQsqaUBKTNV-1" parent="WIyWlLk6GJQsqaUBKTNV-0" />
        <mxCell id="WIyWlLk6GJQsqaUBKTNV-2" value="" style="rounded=0;html=1;jettySize=auto;orthogonalLoop=1;fontSize=11;endArrow=block;endFill=0;endSize=8;strokeWidth=1;shadow=0;labelBackgroundColor=none;edgeStyle=orthogonalEdgeStyle;" parent="WIyWlLk6GJQsqaUBKTNV-1" source="WUQqC8OdkRDqyHFRCHxN-0" target="WIyWlLk6GJQsqaUBKTNV-3" edge="1">
          <mxGeometry relative="1" as="geometry">
            <mxPoint x="530.0644827586207" y="170" as="sourcePoint" />
            <mxPoint x="530.03" y="280" as="targetPoint" />
            <Array as="points">
              <mxPoint x="180" y="165" />
              <mxPoint x="180" y="110" />
            </Array>
          </mxGeometry>
        </mxCell>
        <mxCell id="WIyWlLk6GJQsqaUBKTNV-3" value="Переход в &quot;Мою музыку&quot;" style="rounded=1;whiteSpace=wrap;html=1;fontSize=12;glass=0;strokeWidth=1;shadow=0;" parent="WIyWlLk6GJQsqaUBKTNV-1" vertex="1">
          <mxGeometry x="220" y="90" width="210" height="40" as="geometry" />
        </mxCell>
        <mxCell id="WUQqC8OdkRDqyHFRCHxN-0" value="Запуск программы" style="rounded=0;whiteSpace=wrap;html=1;" vertex="1" parent="WIyWlLk6GJQsqaUBKTNV-1">
          <mxGeometry x="20" y="150" width="120" height="30" as="geometry" />
        </mxCell>
        <mxCell id="WUQqC8OdkRDqyHFRCHxN-1" value="Переход в &quot;Мои плейлисты&quot;" style="rounded=1;whiteSpace=wrap;html=1;fontSize=12;glass=0;strokeWidth=1;shadow=0;" vertex="1" parent="WIyWlLk6GJQsqaUBKTNV-1">
          <mxGeometry x="220" y="200" width="210" height="40" as="geometry" />
        </mxCell>
        <mxCell id="WUQqC8OdkRDqyHFRCHxN-2" value="" style="rounded=0;html=1;jettySize=auto;orthogonalLoop=1;fontSize=11;endArrow=block;endFill=0;endSize=8;strokeWidth=1;shadow=0;labelBackgroundColor=none;edgeStyle=orthogonalEdgeStyle;" edge="1" parent="WIyWlLk6GJQsqaUBKTNV-1" source="WUQqC8OdkRDqyHFRCHxN-0" target="WUQqC8OdkRDqyHFRCHxN-1">
          <mxGeometry relative="1" as="geometry">
            <mxPoint x="150" y="185" as="sourcePoint" />
            <mxPoint x="230" y="120" as="targetPoint" />
            <Array as="points">
              <mxPoint x="180" y="165" />
              <mxPoint x="180" y="220" />
            </Array>
          </mxGeometry>
        </mxCell>
        <mxCell id="WUQqC8OdkRDqyHFRCHxN-3" value="Выбор песни для проигрывания" style="whiteSpace=wrap;html=1;rounded=1;glass=0;strokeWidth=1;shadow=0;" vertex="1" parent="WIyWlLk6GJQsqaUBKTNV-1">
          <mxGeometry x="513" y="80" width="120" height="60" as="geometry" />
        </mxCell>
        <mxCell id="WUQqC8OdkRDqyHFRCHxN-5" value="Выбор плейлиста" style="whiteSpace=wrap;html=1;rounded=1;glass=0;strokeWidth=1;shadow=0;" vertex="1" parent="WIyWlLk6GJQsqaUBKTNV-1">
          <mxGeometry x="513" y="190" width="120" height="60" as="geometry" />
        </mxCell>
        <mxCell id="WUQqC8OdkRDqyHFRCHxN-7" value="Создание своего плейлиста" style="whiteSpace=wrap;html=1;rounded=1;glass=0;strokeWidth=1;shadow=0;" vertex="1" parent="WIyWlLk6GJQsqaUBKTNV-1">
          <mxGeometry x="513" y="280" width="120" height="60" as="geometry" />
        </mxCell>
        <mxCell id="WUQqC8OdkRDqyHFRCHxN-8" value="" style="rounded=0;html=1;jettySize=auto;orthogonalLoop=1;fontSize=11;endArrow=block;endFill=0;endSize=8;strokeWidth=1;shadow=0;labelBackgroundColor=none;edgeStyle=orthogonalEdgeStyle;" edge="1" parent="WIyWlLk6GJQsqaUBKTNV-1" source="WIyWlLk6GJQsqaUBKTNV-3" target="WUQqC8OdkRDqyHFRCHxN-3">
          <mxGeometry relative="1" as="geometry">
            <mxPoint x="150" y="175" as="sourcePoint" />
            <mxPoint x="230" y="120" as="targetPoint" />
            <Array as="points">
              <mxPoint x="520" y="110" />
              <mxPoint x="520" y="110" />
            </Array>
          </mxGeometry>
        </mxCell>
        <mxCell id="WUQqC8OdkRDqyHFRCHxN-9" value="" style="rounded=0;html=1;jettySize=auto;orthogonalLoop=1;fontSize=11;endArrow=block;endFill=0;endSize=8;strokeWidth=1;shadow=0;labelBackgroundColor=none;edgeStyle=orthogonalEdgeStyle;" edge="1" parent="WIyWlLk6GJQsqaUBKTNV-1" source="WUQqC8OdkRDqyHFRCHxN-1" target="WUQqC8OdkRDqyHFRCHxN-5">
          <mxGeometry relative="1" as="geometry">
            <mxPoint x="440" y="120" as="sourcePoint" />
            <mxPoint x="565" y="120" as="targetPoint" />
            <Array as="points">
              <mxPoint x="490" y="220" />
              <mxPoint x="490" y="220" />
            </Array>
          </mxGeometry>
        </mxCell>
        <mxCell id="WUQqC8OdkRDqyHFRCHxN-10" value="" style="rounded=0;html=1;jettySize=auto;orthogonalLoop=1;fontSize=11;endArrow=block;endFill=0;endSize=8;strokeWidth=1;shadow=0;labelBackgroundColor=none;edgeStyle=orthogonalEdgeStyle;" edge="1" parent="WIyWlLk6GJQsqaUBKTNV-1" source="WUQqC8OdkRDqyHFRCHxN-1" target="WUQqC8OdkRDqyHFRCHxN-7">
          <mxGeometry relative="1" as="geometry">
            <mxPoint x="440" y="230" as="sourcePoint" />
            <mxPoint x="565" y="230" as="targetPoint" />
            <Array as="points">
              <mxPoint x="460" y="220" />
              <mxPoint x="460" y="310" />
            </Array>
          </mxGeometry>
        </mxCell>
        <mxCell id="WUQqC8OdkRDqyHFRCHxN-11" value="" style="rounded=0;html=1;jettySize=auto;orthogonalLoop=1;fontSize=11;endArrow=block;endFill=0;endSize=8;strokeWidth=1;shadow=0;labelBackgroundColor=none;edgeStyle=orthogonalEdgeStyle;" edge="1" parent="WIyWlLk6GJQsqaUBKTNV-1" source="WUQqC8OdkRDqyHFRCHxN-13" target="WUQqC8OdkRDqyHFRCHxN-12">
          <mxGeometry relative="1" as="geometry">
            <mxPoint x="550.0644827586207" y="610" as="sourcePoint" />
            <mxPoint x="550.03" y="720" as="targetPoint" />
            <Array as="points">
              <mxPoint x="280" y="510" />
              <mxPoint x="115" y="510" />
            </Array>
          </mxGeometry>
        </mxCell>
        <mxCell id="WUQqC8OdkRDqyHFRCHxN-12" value="Переход в &quot;Мою музыку&quot;" style="rounded=1;whiteSpace=wrap;html=1;fontSize=12;glass=0;strokeWidth=1;shadow=0;" vertex="1" parent="WIyWlLk6GJQsqaUBKTNV-1">
          <mxGeometry x="10" y="545" width="210" height="40" as="geometry" />
        </mxCell>
        <mxCell id="WUQqC8OdkRDqyHFRCHxN-13" value="Запуск программы" style="rounded=0;whiteSpace=wrap;html=1;" vertex="1" parent="WIyWlLk6GJQsqaUBKTNV-1">
          <mxGeometry x="220" y="390" width="120" height="30" as="geometry" />
        </mxCell>
        <mxCell id="WUQqC8OdkRDqyHFRCHxN-14" value="Переход в &quot;Мои плейлисты&quot;" style="rounded=1;whiteSpace=wrap;html=1;fontSize=12;glass=0;strokeWidth=1;shadow=0;" vertex="1" parent="WIyWlLk6GJQsqaUBKTNV-1">
          <mxGeometry x="290" y="540" width="210" height="40" as="geometry" />
        </mxCell>
        <mxCell id="WUQqC8OdkRDqyHFRCHxN-16" value="Выбор песни для проигрывания" style="whiteSpace=wrap;html=1;rounded=1;glass=0;strokeWidth=1;shadow=0;" vertex="1" parent="WIyWlLk6GJQsqaUBKTNV-1">
          <mxGeometry x="50" y="670" width="120" height="60" as="geometry" />
        </mxCell>
        <mxCell id="WUQqC8OdkRDqyHFRCHxN-17" value="Создание своего плейлиста" style="whiteSpace=wrap;html=1;rounded=1;glass=0;strokeWidth=1;shadow=0;" vertex="1" parent="WIyWlLk6GJQsqaUBKTNV-1">
          <mxGeometry x="441" y="676" width="120" height="44" as="geometry" />
        </mxCell>
        <mxCell id="WUQqC8OdkRDqyHFRCHxN-18" value="Выбор плейлиста" style="whiteSpace=wrap;html=1;rounded=1;glass=0;strokeWidth=1;shadow=0;" vertex="1" parent="WIyWlLk6GJQsqaUBKTNV-1">
          <mxGeometry x="280" y="676" width="120" height="60" as="geometry" />
        </mxCell>
        <mxCell id="WUQqC8OdkRDqyHFRCHxN-20" value="" style="rounded=0;html=1;jettySize=auto;orthogonalLoop=1;fontSize=11;endArrow=block;endFill=0;endSize=8;strokeWidth=1;shadow=0;labelBackgroundColor=none;edgeStyle=orthogonalEdgeStyle;" edge="1" parent="WIyWlLk6GJQsqaUBKTNV-1" source="WUQqC8OdkRDqyHFRCHxN-13" target="WUQqC8OdkRDqyHFRCHxN-14">
          <mxGeometry relative="1" as="geometry">
            <mxPoint x="460" y="560" as="sourcePoint" />
            <mxPoint x="585" y="560" as="targetPoint" />
            <Array as="points">
              <mxPoint x="280" y="510" />
              <mxPoint x="390" y="510" />
            </Array>
          </mxGeometry>
        </mxCell>
        <mxCell id="WUQqC8OdkRDqyHFRCHxN-21" value="" style="rounded=0;html=1;jettySize=auto;orthogonalLoop=1;fontSize=11;endArrow=block;endFill=0;endSize=8;strokeWidth=1;shadow=0;labelBackgroundColor=none;edgeStyle=orthogonalEdgeStyle;" edge="1" parent="WIyWlLk6GJQsqaUBKTNV-1" source="WUQqC8OdkRDqyHFRCHxN-14" target="WUQqC8OdkRDqyHFRCHxN-18">
          <mxGeometry relative="1" as="geometry">
            <mxPoint x="460" y="670" as="sourcePoint" />
            <mxPoint x="585" y="670" as="targetPoint" />
            <Array as="points">
              <mxPoint x="390" y="640" />
              <mxPoint x="340" y="640" />
            </Array>
          </mxGeometry>
        </mxCell>
        <mxCell id="WUQqC8OdkRDqyHFRCHxN-22" value="" style="rounded=0;html=1;jettySize=auto;orthogonalLoop=1;fontSize=11;endArrow=block;endFill=0;endSize=8;strokeWidth=1;shadow=0;labelBackgroundColor=none;edgeStyle=orthogonalEdgeStyle;" edge="1" parent="WIyWlLk6GJQsqaUBKTNV-1" source="WUQqC8OdkRDqyHFRCHxN-12" target="WUQqC8OdkRDqyHFRCHxN-16">
          <mxGeometry relative="1" as="geometry">
            <mxPoint x="440" y="230" as="sourcePoint" />
            <mxPoint x="523" y="320" as="targetPoint" />
            <Array as="points">
              <mxPoint x="115" y="690" />
              <mxPoint x="100" y="690" />
            </Array>
          </mxGeometry>
        </mxCell>
        <mxCell id="WUQqC8OdkRDqyHFRCHxN-23" value="" style="rounded=0;html=1;jettySize=auto;orthogonalLoop=1;fontSize=11;endArrow=block;endFill=0;endSize=8;strokeWidth=1;shadow=0;labelBackgroundColor=none;edgeStyle=orthogonalEdgeStyle;" edge="1" parent="WIyWlLk6GJQsqaUBKTNV-1" source="WUQqC8OdkRDqyHFRCHxN-14" target="WUQqC8OdkRDqyHFRCHxN-17">
          <mxGeometry relative="1" as="geometry">
            <mxPoint x="430" y="590" as="sourcePoint" />
            <mxPoint x="430" y="800" as="targetPoint" />
            <Array as="points">
              <mxPoint x="390" y="640" />
              <mxPoint x="500" y="640" />
            </Array>
          </mxGeometry>
        </mxCell>
        <mxCell id="WUQqC8OdkRDqyHFRCHxN-24" value="Выбор названия" style="whiteSpace=wrap;html=1;rounded=1;glass=0;strokeWidth=1;shadow=0;" vertex="1" parent="WIyWlLk6GJQsqaUBKTNV-1">
          <mxGeometry x="441" y="749" width="120" height="40" as="geometry" />
        </mxCell>
        <mxCell id="WUQqC8OdkRDqyHFRCHxN-26" value="Выбор песен " style="whiteSpace=wrap;html=1;rounded=1;glass=0;strokeWidth=1;shadow=0;" vertex="1" parent="WIyWlLk6GJQsqaUBKTNV-1">
          <mxGeometry x="441" y="830" width="120" height="38" as="geometry" />
        </mxCell>
        <mxCell id="WUQqC8OdkRDqyHFRCHxN-29" value="Выбор песни из плейлиста" style="rounded=1;whiteSpace=wrap;html=1;glass=0;strokeWidth=1;shadow=0;" vertex="1" parent="WIyWlLk6GJQsqaUBKTNV-1">
          <mxGeometry x="280" y="789" width="120" height="60" as="geometry" />
        </mxCell>
        <mxCell id="WUQqC8OdkRDqyHFRCHxN-31" value="" style="rounded=0;html=1;jettySize=auto;orthogonalLoop=1;fontSize=11;endArrow=block;endFill=0;endSize=8;strokeWidth=1;shadow=0;labelBackgroundColor=none;edgeStyle=orthogonalEdgeStyle;" edge="1" parent="WIyWlLk6GJQsqaUBKTNV-1" source="WUQqC8OdkRDqyHFRCHxN-18" target="WUQqC8OdkRDqyHFRCHxN-29">
          <mxGeometry relative="1" as="geometry">
            <mxPoint x="125" y="595" as="sourcePoint" />
            <mxPoint x="125" y="680" as="targetPoint" />
            <Array as="points">
              <mxPoint x="330" y="760" />
              <mxPoint x="330" y="760" />
            </Array>
          </mxGeometry>
        </mxCell>
        <mxCell id="WUQqC8OdkRDqyHFRCHxN-32" value="" style="rounded=0;html=1;jettySize=auto;orthogonalLoop=1;fontSize=11;endArrow=block;endFill=0;endSize=8;strokeWidth=1;shadow=0;labelBackgroundColor=none;edgeStyle=orthogonalEdgeStyle;" edge="1" parent="WIyWlLk6GJQsqaUBKTNV-1" source="WUQqC8OdkRDqyHFRCHxN-17" target="WUQqC8OdkRDqyHFRCHxN-24">
          <mxGeometry relative="1" as="geometry">
            <mxPoint x="499.31" y="720" as="sourcePoint" />
            <mxPoint x="499.31" y="773" as="targetPoint" />
            <Array as="points" />
          </mxGeometry>
        </mxCell>
        <mxCell id="WUQqC8OdkRDqyHFRCHxN-33" value="" style="rounded=0;html=1;jettySize=auto;orthogonalLoop=1;fontSize=11;endArrow=block;endFill=0;endSize=8;strokeWidth=1;shadow=0;labelBackgroundColor=none;edgeStyle=orthogonalEdgeStyle;" edge="1" parent="WIyWlLk6GJQsqaUBKTNV-1" source="WUQqC8OdkRDqyHFRCHxN-24" target="WUQqC8OdkRDqyHFRCHxN-26">
          <mxGeometry relative="1" as="geometry">
            <mxPoint x="500" y="789" as="sourcePoint" />
            <mxPoint x="500" y="818" as="targetPoint" />
            <Array as="points" />
          </mxGeometry>
        </mxCell>
        <mxCell id="WUQqC8OdkRDqyHFRCHxN-36" value="Завершение работы программы" style="rounded=0;whiteSpace=wrap;html=1;" vertex="1" parent="WIyWlLk6GJQsqaUBKTNV-1">
          <mxGeometry x="230" y="980" width="120" height="30" as="geometry" />
        </mxCell>
        <mxCell id="WUQqC8OdkRDqyHFRCHxN-37" value="" style="rounded=0;html=1;jettySize=auto;orthogonalLoop=1;fontSize=11;endArrow=block;endFill=0;endSize=8;strokeWidth=1;shadow=0;labelBackgroundColor=none;edgeStyle=orthogonalEdgeStyle;" edge="1" parent="WIyWlLk6GJQsqaUBKTNV-1" source="WUQqC8OdkRDqyHFRCHxN-16" target="WUQqC8OdkRDqyHFRCHxN-36">
          <mxGeometry relative="1" as="geometry">
            <mxPoint x="140" y="849" as="sourcePoint" />
            <mxPoint x="140" y="934" as="targetPoint" />
            <Array as="points">
              <mxPoint x="140" y="995" />
            </Array>
          </mxGeometry>
        </mxCell>
        <mxCell id="WUQqC8OdkRDqyHFRCHxN-38" value="" style="rounded=0;html=1;jettySize=auto;orthogonalLoop=1;fontSize=11;endArrow=block;endFill=0;endSize=8;strokeWidth=1;shadow=0;labelBackgroundColor=none;edgeStyle=orthogonalEdgeStyle;" edge="1" parent="WIyWlLk6GJQsqaUBKTNV-1" source="WUQqC8OdkRDqyHFRCHxN-29" target="WUQqC8OdkRDqyHFRCHxN-36">
          <mxGeometry relative="1" as="geometry">
            <mxPoint x="330" y="868" as="sourcePoint" />
            <mxPoint x="330" y="921" as="targetPoint" />
            <Array as="points" />
          </mxGeometry>
        </mxCell>
        <mxCell id="WUQqC8OdkRDqyHFRCHxN-39" value="" style="rounded=0;html=1;jettySize=auto;orthogonalLoop=1;fontSize=11;endArrow=block;endFill=0;endSize=8;strokeWidth=1;shadow=0;labelBackgroundColor=none;edgeStyle=orthogonalEdgeStyle;" edge="1" parent="WIyWlLk6GJQsqaUBKTNV-1" source="WUQqC8OdkRDqyHFRCHxN-40" target="WUQqC8OdkRDqyHFRCHxN-36">
          <mxGeometry relative="1" as="geometry">
            <mxPoint x="510" y="930" as="sourcePoint" />
            <mxPoint x="300" y="990" as="targetPoint" />
            <Array as="points">
              <mxPoint x="510" y="995" />
            </Array>
          </mxGeometry>
        </mxCell>
        <mxCell id="WUQqC8OdkRDqyHFRCHxN-40" value="Добавление нового плейлиста в имеющиеся плейлисты" style="whiteSpace=wrap;html=1;rounded=1;glass=0;strokeWidth=1;shadow=0;" vertex="1" parent="WIyWlLk6GJQsqaUBKTNV-1">
          <mxGeometry x="426.5" y="900" width="149" height="50" as="geometry" />
        </mxCell>
        <mxCell id="WUQqC8OdkRDqyHFRCHxN-41" value="" style="rounded=0;html=1;jettySize=auto;orthogonalLoop=1;fontSize=11;endArrow=block;endFill=0;endSize=8;strokeWidth=1;shadow=0;labelBackgroundColor=none;edgeStyle=orthogonalEdgeStyle;" edge="1" parent="WIyWlLk6GJQsqaUBKTNV-1" source="WUQqC8OdkRDqyHFRCHxN-26" target="WUQqC8OdkRDqyHFRCHxN-40">
          <mxGeometry relative="1" as="geometry">
            <mxPoint x="480" y="880" as="sourcePoint" />
            <mxPoint x="480" y="921" as="targetPoint" />
            <Array as="points" />
          </mxGeometry>
        </mxCell>
      </root>
    </mxGraphModel>
  </diagram>
</mxfile>
